# xmcd
#
# Track frame offsets:
#	150
#	14032
#	24930
#	39233
#	54690
#	65795
#	79020
#	95837
#	108059
#	118684
#	128162
#	147957
#	159583
#	171514
#	183211
#	194785
#	201028
#	214003
#	224355
#	232432
#	243115
#	252345
#	262924
#	278417
#	290390
#	301941
#
# Disc length: 4294 seconds
#
# Revision: 0
# Processed by: cddbd v1.5.1PL0 Copyright (c) Steve Scherf et al.
# Submitted via: EasyCDDAExtractor 4.6.9.1
#
DISCID=8210c41a
DTITLE=Various Artist - Sunshine State Swing
DYEAR=1900
DGENRE=country
TTITLE0=Spade Cooley - It`s Dark Outside 
TTITLE1=Spade Cooley - South
TTITLE2=Spade Cooley - You Don't Love Me But I'll Always Care
TTITLE3=Spade Cooley - Flying Home
TTITLE4=T. Texas Tyler - Remember Me
TTITLE5=T. Texas Tyler - My Buckets Got A Hole In It
TTITLE6=T. Texas Tyler - Between Memphis and New Orleans
TTITLE7=Porky Freeman - The Grass Looks Greener Over Yonder
TTITLE8=Freddie Travares - Coquette
TTITLE9=Rue Barclay - Guitar Boogie
TTITLE10=Hank Penny - Still Water Runs The Deepest
TTITLE11=Hank Penny - We Met Too Late
TTITLE12=Johnny Bond - Gals Don't Mean A Thing
TTITLE13=Johnny Bond - Tomorrow Never Comes
TTITLE14=Merle Travis - John Henry
TTITLE15=Jack Rivers - Little Rock Getaway
TTITLE16=Tex Williams - Don't Telephone Don't Telegraph
TTITLE17=Sunshine Boys - Noah
TTITLE18=Harold Hensley - Texas Set-Up
TTITLE19=Les Paul - Midnight Special
TTITLE20=Red Rowe - Be Honest With Me
TTITLE21=Spade Cooley - Riverside Drive
TTITLE22=Spade Cooley - One Sweet Letter From You
TTITLE23=Spade Cooley - Fireball Mail
TTITLE24=Spade Cooley - Devil's Dream
TTITLE25=Spade Cooley - Shame On You/Steel Guitar Rag
EXTD=
EXTT0=
EXTT1=
EXTT2=
EXTT3=
EXTT4=
EXTT5=
EXTT6=
EXTT7=
EXTT8=
EXTT9=
EXTT10=
EXTT11=
EXTT12=
EXTT13=
EXTT14=
EXTT15=
EXTT16=
EXTT17=
EXTT18=
EXTT19=
EXTT20=
EXTT21=
EXTT22=
EXTT23=
EXTT24=
EXTT25=
PLAYORDER=
